<svg xmlns="http://www.w3.org/2000/svg" version="1.1" width="32" height="32" viewBox="0 0 512 512"
  style="shape-rendering:geometricPrecision; text-rendering:geometricPrecision; image-rendering:optimizeQuality; fill-rule:evenodd; clip-rule:evenodd"
  xmlns:xlink="http://www.w3.org/1999/xlink">
  <g>
    <path style="opacity:1" fill="#030302"
      d="M 50.5,58.5 C 75.1689,58.3334 99.8356,58.5 124.5,59C 127.196,59.7648 129.696,60.9315 132,62.5C 177.147,153.464 221.814,244.797 266,336.5C 269.247,342.815 270.58,349.482 270,356.5C 263.645,380.589 256.978,404.589 250,428.5C 247.758,437.153 244.758,445.486 241,453.5C 238.626,451.461 236.626,449.128 235,446.5C 221.549,418.599 208.382,390.599 195.5,362.5C 196.47,360.026 195.47,358.359 192.5,357.5C 167.686,303.047 142.686,248.714 117.5,194.5C 117.108,192.821 116.608,191.154 116,189.5C 115.5,275.166 115.333,360.833 115.5,446.5C 93.8333,446.5 72.1667,446.5 50.5,446.5C 50.5,317.167 50.5,187.833 50.5,58.5 Z" />
  </g>
  <g>
    <path style="opacity:0.999" fill="#050505"
      d="M 458.5,65.5 C 459.481,78.7541 459.814,92.0875 459.5,105.5C 429.392,105.42 400.058,110.087 371.5,119.5C 371.167,133.167 370.833,146.833 370.5,160.5C 370.382,176.204 370.882,191.871 372,207.5C 373.556,212.28 375.889,216.613 379,220.5C 391.409,233.071 403.242,246.071 414.5,259.5C 414.427,261.027 415.094,262.027 416.5,262.5C 431.978,279.444 442.812,299.111 449,321.5C 456.609,358.589 447.109,390.422 420.5,417C 387.394,441.537 351.727,445.87 313.5,430C 297.791,422.674 283.791,413.174 271.5,401.5C 276.321,375.869 284.821,351.536 297,328.5C 300.504,322.156 304.504,316.156 309,310.5C 309.783,323.083 312.116,335.416 316,347.5C 322.229,363.07 333.396,372.903 349.5,377C 372.506,377.995 384.839,366.995 386.5,344C 385.892,333.843 383.059,324.343 378,315.5C 373.333,308.833 368.667,302.167 364,295.5C 347.803,278.101 333.803,259.101 322,238.5C 320.687,234.58 319.687,230.58 319,226.5C 318.771,210.819 318.271,195.152 317.5,179.5C 317.592,177.742 317.925,176.076 318.5,174.5C 318.832,163.48 318.499,152.48 317.5,141.5C 316.893,141.624 316.56,141.957 316.5,142.5C 298.102,153.7 280.769,166.367 264.5,180.5C 263.596,179.791 263.263,178.791 263.5,177.5C 267.505,158.488 276.005,141.822 289,127.5C 326.666,90.0919 372.166,69.5919 425.5,66C 436.495,65.5002 447.495,65.3335 458.5,65.5 Z" />
  </g>
  <g>
    <path style="opacity:0.247" fill="#908e8a"
      d="M 459.5,105.5 C 459.814,92.0875 459.481,78.7541 458.5,65.5C 458.81,64.2617 459.31,64.2617 460,65.5C 460.827,79.0064 460.66,92.3397 459.5,105.5 Z" />
  </g>
  <g>
    <path style="opacity:0.125" fill="#aeaaa7"
      d="M 316.5,142.5 C 316.56,141.957 316.893,141.624 317.5,141.5C 318.499,152.48 318.832,163.48 318.5,174.5C 317.833,163.833 317.167,153.167 316.5,142.5 Z" />
  </g>
  <g>
    <path style="opacity:0.435" fill="#777671"
      d="M 263.5,177.5 C 263.263,178.791 263.596,179.791 264.5,180.5C 264.217,181.289 263.717,181.956 263,182.5C 262.22,180.613 262.387,178.946 263.5,177.5 Z" />
  </g>
  <g>
    <path style="opacity:0.718" fill="#5f5d5b"
      d="M 414.5,259.5 C 415.906,259.973 416.573,260.973 416.5,262.5C 415.094,262.027 414.427,261.027 414.5,259.5 Z" />
  </g>
  <g>
    <path style="opacity:1" fill="#44423f"
      d="M 192.5,357.5 C 195.47,358.359 196.47,360.026 195.5,362.5C 194.263,361.035 193.263,359.368 192.5,357.5 Z" />
  </g>
  <g>
    <path style="opacity:0.133" fill="#a4a39f"
      d="M 117.5,194.5 C 116.833,278.833 116.167,363.167 115.5,447.5C 115.5,447.167 115.5,446.833 115.5,446.5C 115.333,360.833 115.5,275.166 116,189.5C 116.608,191.154 117.108,192.821 117.5,194.5 Z" />
  </g>
  <g>
    <path style="opacity:0.749" fill="#52514f"
      d="M 50.5,58.5 C 50.5,187.833 50.5,317.167 50.5,446.5C 72.1667,446.5 93.8333,446.5 115.5,446.5C 115.5,446.833 115.5,447.167 115.5,447.5C 93.5,447.5 71.5,447.5 49.5,447.5C 49.1671,317.666 49.5004,187.999 50.5,58.5 Z" />
  </g>
</svg>